<svg width="41" height="40" viewBox="0 0 41 40" fill="none" xmlns="http://www.w3.org/2000/svg">
<path fill-rule="evenodd" clip-rule="evenodd" d="M20.404 2.08333H20.5953C24.4426 2.08331 27.4577 2.08329 29.8102 2.39957C32.2181 2.72331 34.1181 3.39887 35.6094 4.89022C37.1008 6.38157 37.7764 8.28161 38.1001 10.6895C38.4164 13.042 38.4164 16.057 38.4163 19.9044V20.0956C38.4164 23.9429 38.4164 26.958 38.1001 29.3105C37.7764 31.7184 37.1008 33.6184 35.6094 35.1098C34.1181 36.6011 32.2181 37.2767 29.8102 37.6004C27.4577 37.9167 24.4426 37.9167 20.5953 37.9167H20.4041C16.5567 37.9167 13.5417 37.9167 11.1892 37.6004C8.78129 37.2767 6.88125 36.6011 5.3899 35.1098C3.89855 33.6184 3.22299 31.7184 2.89925 29.3105C2.58297 26.958 2.58299 23.9429 2.58301 20.0956V19.9044C2.58299 16.057 2.58297 13.042 2.89925 10.6895C3.22299 8.28161 3.89855 6.38157 5.3899 4.89022C6.88125 3.39887 8.78129 2.72331 11.1892 2.39957C13.5417 2.08329 16.5567 2.08331 20.404 2.08333ZM11.5223 4.87728C9.39163 5.16374 8.1071 5.70856 7.15767 6.65799C6.20824 7.60742 5.66342 8.89195 5.37696 11.0226C5.3317 11.3592 5.29342 11.7122 5.26102 12.0833H11.4802L16.2403 4.60307C14.3612 4.63191 12.8198 4.70284 11.5223 4.87728ZM19.1783 4.58387C19.1473 4.67114 19.1061 4.75631 19.0543 4.83776L14.4434 12.0833H22.3135L27.0312 4.66984C25.2592 4.58449 23.1242 4.58333 20.4997 4.58333C20.0447 4.58333 19.6045 4.58336 19.1783 4.58387ZM29.83 4.9283L25.2768 12.0833H35.7383C35.7059 11.7122 35.6676 11.3592 35.6224 11.0226C35.3359 8.89195 34.7911 7.60742 33.8417 6.65799C32.9459 5.76217 31.7517 5.22656 29.83 4.9283ZM35.8718 14.5833H23.0184C23.0051 14.5835 22.9919 14.5835 22.9786 14.5833H12.185C12.1718 14.5835 12.1585 14.5835 12.1453 14.5833H5.12755C5.08375 16.1195 5.08301 17.9036 5.08301 20C5.08301 23.9637 5.08566 26.8107 5.37696 28.9774C5.66342 31.108 6.20824 32.3926 7.15767 33.342C8.1071 34.2914 9.39163 34.8362 11.5223 35.1227C13.6889 35.414 16.536 35.4167 20.4997 35.4167C24.4634 35.4167 27.3104 35.414 29.477 35.1227C31.6077 34.8362 32.8923 34.2914 33.8417 33.342C34.7911 32.3926 35.3359 31.108 35.6224 28.9774C35.9137 26.8107 35.9163 23.9637 35.9163 20C35.9163 17.9036 35.9156 16.1195 35.8718 14.5833ZM22.7801 19.8687L22.9495 19.978C23.9825 20.6444 24.8769 21.2214 25.5003 21.7727C26.1635 22.3593 26.7497 23.1144 26.7497 24.1667C26.7497 25.2189 26.1635 25.974 25.5003 26.5606C24.8769 27.1119 23.9825 27.6889 22.9495 28.3553L22.7801 28.4646C21.7365 29.1381 20.8295 29.7234 20.0762 30.0579C19.2923 30.4059 18.2879 30.6567 17.33 30.0481C16.4223 29.4714 16.147 28.4871 16.0315 27.6204C15.9162 26.7551 15.9163 25.6122 15.9163 24.2582V24.0751C15.9163 22.7211 15.9162 21.5783 16.0315 20.7129C16.147 19.8463 16.4223 18.8619 17.33 18.2852C18.2879 17.6767 19.2923 17.9274 20.0762 18.2755C20.8295 18.61 21.7365 19.1953 22.7801 19.8687ZM18.5962 20.4195C18.5952 20.4181 18.603 20.4161 18.6226 20.4173C18.607 20.4214 18.5972 20.4208 18.5962 20.4195ZM18.6615 20.4221C18.7284 20.4335 18.8528 20.4676 19.0617 20.5604C19.6143 20.8057 20.3554 21.2795 21.5119 22.0257C22.6509 22.7606 23.3806 23.2355 23.8441 23.6454C24.2708 24.0228 24.2513 24.1553 24.2498 24.166C24.2513 24.1768 24.2708 24.3105 23.8441 24.6879C23.3806 25.0978 22.6509 25.5727 21.5119 26.3076C20.3554 27.0538 19.6143 27.5276 19.0617 27.773C18.8528 27.8657 18.7284 27.8999 18.6615 27.9113C18.6245 27.84 18.5599 27.6676 18.5096 27.2902C18.419 26.6103 18.4163 25.6369 18.4163 24.1667C18.4163 22.6964 18.419 21.723 18.5096 21.0432C18.5599 20.6657 18.6245 20.4933 18.6615 20.4221ZM18.5962 27.9138C18.5972 27.9125 18.607 27.9119 18.6226 27.9161C18.603 27.9173 18.5952 27.9152 18.5962 27.9138ZM18.6831 27.947C18.6889 27.9518 18.6913 27.9551 18.6912 27.9556C18.691 27.956 18.6881 27.9536 18.6831 27.947ZM18.6831 20.3863C18.6881 20.3797 18.691 20.3773 18.6912 20.3778C18.6913 20.3782 18.6889 20.3815 18.6831 20.3863Z" fill="white"/>
</svg>
