<svg width="101" height="101" viewBox="0 0 101 101" fill="none" xmlns="http://www.w3.org/2000/svg">
<path d="M50.5 30.7083C52.2259 30.7083 53.625 32.1074 53.625 33.8333V54.6667C53.625 56.3926 52.2259 57.7917 50.5 57.7917C48.7741 57.7917 47.375 56.3926 47.375 54.6667V33.8333C47.375 32.1074 48.7741 30.7083 50.5 30.7083Z" fill="white"/>
<path d="M50.5 71.3333C52.8012 71.3333 54.6666 69.4679 54.6666 67.1667C54.6666 64.8655 52.8012 63 50.5 63C48.1988 63 46.3333 64.8655 46.3333 67.1667C46.3333 69.4679 48.1988 71.3333 50.5 71.3333Z" fill="white"/>
<path fill-rule="evenodd" clip-rule="evenodd" d="M35.0601 19.1518C39.5263 13.4789 44.2576 9.875 50.5 9.875C56.7423 9.875 61.4736 13.4789 65.9398 19.1518C70.3323 24.731 74.9872 32.9843 80.9428 43.5439L82.7574 46.7611C87.6807 55.4902 91.5693 62.3845 93.6118 67.9183C95.6991 73.5734 96.195 78.708 93.0374 83.2372C89.9733 87.6323 84.8611 89.4307 78.4131 90.2795C71.9899 91.1251 63.352 91.1251 52.2701 91.125H48.7299C37.6481 91.1251 29.01 91.1251 22.5868 90.2795C16.1388 89.4307 11.0266 87.6323 7.9625 83.2372C4.80495 78.708 5.3008 73.5734 7.3881 67.9183C9.43061 62.3845 13.3191 55.4902 18.2425 46.7612L20.0568 43.5444C26.0125 32.9846 30.6675 24.7311 35.0601 19.1518ZM39.9708 23.018C35.9124 28.1728 31.4877 35.9995 25.354 46.8747L23.8387 49.5613C18.7295 58.6202 15.0987 65.0777 13.2515 70.0824C11.428 75.0228 11.6808 77.6421 13.0895 79.6629C14.5918 81.8177 17.4114 83.2943 23.4025 84.083C29.3691 84.8684 37.5942 84.875 48.9847 84.875H52.0152C63.4057 84.875 71.6308 84.8684 77.5974 84.083C83.5885 83.2943 86.4081 81.8177 87.9104 79.6629C89.3191 77.6421 89.5719 75.0228 87.7484 70.0824C85.9012 65.0777 82.2704 58.6202 77.1611 49.5613L75.6459 46.8747C69.5122 35.9995 65.0875 28.1728 61.0291 23.018C57.0085 17.9111 53.8857 16.125 50.5 16.125C47.1142 16.125 43.9914 17.9111 39.9708 23.018Z" fill="white"/>
</svg>
