<svg width="101" height="100" viewBox="0 0 101 100" fill="none" xmlns="http://www.w3.org/2000/svg">
<path d="M50.5001 91.6667C73.5119 91.6667 92.1667 73.0119 92.1667 50C92.1667 26.9881 73.5119 8.33334 50.5001 8.33334C27.4882 8.33334 8.83341 26.9881 8.83341 50C8.83341 56.6654 10.3985 62.9652 13.1812 68.552C13.9206 70.0367 14.1668 71.7336 13.7381 73.3359L11.2564 82.6111C10.1791 86.6374 13.8626 90.321 17.889 89.2437L27.1642 86.762C28.7665 86.3333 30.4634 86.5794 31.9481 87.3189C37.5349 90.1016 43.8347 91.6667 50.5001 91.6667Z" stroke="white" stroke-width="6.25"/>
<path d="M50.4999 29.1667C52.2258 29.1667 53.6249 30.5658 53.6249 32.2917V53.125C53.6249 54.8509 52.2258 56.25 50.4999 56.25C48.774 56.25 47.3749 54.8509 47.3749 53.125V32.2917C47.3749 30.5658 48.774 29.1667 50.4999 29.1667Z" fill="white"/>
<path d="M50.4999 69.7917C52.8011 69.7917 54.6666 67.9262 54.6666 65.625C54.6666 63.3238 52.8011 61.4583 50.4999 61.4583C48.1987 61.4583 46.3333 63.3238 46.3333 65.625C46.3333 67.9262 48.1987 69.7917 50.4999 69.7917Z" fill="white"/>
</svg>
