<svg width="25" height="24" viewBox="0 0 25 24" fill="none" xmlns="http://www.w3.org/2000/svg">
<path fill-rule="evenodd" clip-rule="evenodd" d="M12.5 2.75C7.39137 2.75 3.25 6.89137 3.25 12C3.25 17.1086 7.39137 21.25 12.5 21.25C17.6086 21.25 21.75 17.1086 21.75 12C21.75 6.89137 17.6086 2.75 12.5 2.75ZM1.75 12C1.75 6.06294 6.56294 1.25 12.5 1.25C18.4371 1.25 23.25 6.06294 23.25 12C23.25 17.9371 18.4371 22.75 12.5 22.75C6.56294 22.75 1.75 17.9371 1.75 12ZM12.9697 8.46967C13.2626 8.17678 13.7374 8.17678 14.0303 8.46967L17.0303 11.4697C17.3232 11.7626 17.3232 12.2374 17.0303 12.5303L14.0303 15.5303C13.7374 15.8232 13.2626 15.8232 12.9697 15.5303C12.6768 15.2374 12.6768 14.7626 12.9697 14.4697L14.6893 12.75H8.5C8.08579 12.75 7.75 12.4142 7.75 12C7.75 11.5858 8.08579 11.25 8.5 11.25H14.6893L12.9697 9.53033C12.6768 9.23744 12.6768 8.76256 12.9697 8.46967Z" fill="black"/>
</svg>
