<svg width="64" height="52" viewBox="0 0 64 52" fill="none" xmlns="http://www.w3.org/2000/svg">
<g clip-path="url(#clip0_138_2970)">
<path d="M1.82719 32.4707C0.631587 30.479 0 28.1996 0 25.8766C0 23.5535 0.631587 21.2742 1.82719 19.2824C2.19462 18.6692 2.68628 18.1396 3.27058 17.7277C3.85488 17.3158 4.51889 17.0307 5.21994 16.8907L11.0044 15.7325C11.3493 15.6642 11.6604 15.4797 11.8859 15.2097L18.9515 6.72615C22.99 1.87449 25.0127 -0.547929 26.8133 0.104654C28.6139 0.757238 28.6207 3.91424 28.6207 10.2282V41.5317C28.6207 47.8423 28.6207 50.9959 26.8167 51.6519C25.0161 52.3011 22.9934 49.8787 18.9549 45.0304L11.879 36.5434C11.6545 36.2741 11.3447 36.0897 11.0009 36.0207L5.21652 34.8624C4.51547 34.7224 3.85146 34.4373 3.26717 34.0254C2.68287 33.6135 2.19462 33.084 1.82719 32.4707Z" fill="white"/>
<path d="M37.6636 13.9187C40.8514 17.1064 42.65 21.425 42.6673 25.9332C42.6846 30.4413 40.9191 34.7736 37.7558 37.9857M51.7437 6.67191C56.8442 11.7718 59.7221 18.6811 59.7503 25.8939C59.7784 33.1066 56.9545 40.0381 51.894 45.1777" stroke="white" stroke-width="6.83333" stroke-linecap="round"/>
</g>
<defs>
<clipPath id="clip0_138_2970">
<rect width="64" height="52" fill="white"/>
</clipPath>
</defs>
</svg>
