<svg width="62" height="62" viewBox="0 0 62 62" fill="none" xmlns="http://www.w3.org/2000/svg">
<g clip-path="url(#clip0_138_2980)">
<path d="M9.08259 52.917C6.12177 50.0573 3.76012 46.6366 2.13544 42.8545C0.510764 39.0724 -0.344409 35.0045 -0.380177 30.8884C-0.415946 26.7722 0.368407 22.6902 1.92711 18.8804C3.48582 15.0706 5.78767 11.6094 8.69834 8.69871C11.609 5.78803 15.0702 3.48619 18.88 1.92748C22.6898 0.368773 26.7719 -0.415579 30.888 -0.379811C35.0042 -0.344043 39.072 0.51113 42.8541 2.13581C46.6362 3.76049 50.0569 6.12214 52.9166 9.08295C58.5635 14.9296 61.6881 22.7603 61.6175 30.8884C61.5468 39.0165 58.2866 46.7917 52.539 52.5393C46.7913 58.287 39.0161 61.5472 30.888 61.6178C22.7599 61.6885 14.9293 58.5639 9.08259 52.917ZM48.5456 48.546C53.1991 43.8925 55.8134 37.581 55.8134 31C55.8134 24.4189 53.1991 18.1074 48.5456 13.454C43.8921 8.80046 37.5806 6.18616 30.9996 6.18616C24.4186 6.18616 18.1071 8.80046 13.4536 13.454C8.8001 18.1074 6.1858 24.4189 6.1858 31C6.1858 37.581 8.8001 43.8925 13.4536 48.546C18.1071 53.1994 24.4186 55.8137 30.9996 55.8137C37.5806 55.8137 43.8921 53.1994 48.5456 48.546ZM21.6996 18.6L46.4996 31L21.6996 43.4V18.6Z" fill="white"/>
</g>
<defs>
<clipPath id="clip0_138_2980">
<rect width="62" height="62" fill="white"/>
</clipPath>
</defs>
</svg>
