<svg width="41" height="41" viewBox="0 0 41 41" fill="none" xmlns="http://www.w3.org/2000/svg">
<path d="M5.97852 22.2084V20.8349C5.97852 15.7662 5.97852 13.2328 6.77972 11.2067C8.06781 7.95231 10.7909 5.3864 14.2451 4.17177C16.3908 3.41669 19.078 3.41669 24.4593 3.41669C27.5308 3.41669 29.0683 3.41669 30.2949 3.8489C32.2681 4.54248 33.8244 6.00823 34.5606 7.8686C35.0185 9.02514 35.0185 10.4738 35.0185 13.3694V22.2084" stroke="white" stroke-width="2.5625" stroke-linecap="round" stroke-linejoin="round"/>
<path d="M5.97852 20.5C5.97852 18.9899 6.5784 17.5417 7.64621 16.4738C8.71402 15.406 10.1623 14.8061 11.6724 14.8061C12.8101 14.8061 14.1512 15.0043 15.2565 14.7088C15.7394 14.5788 16.1797 14.3241 16.5332 13.9703C16.8867 13.6165 17.141 13.176 17.2706 12.6929C17.5661 11.5876 17.368 10.2466 17.368 9.10885C17.3684 7.59904 17.9685 6.15122 19.0363 5.08378C20.104 4.01634 21.552 3.41669 23.0618 3.41669M17.2826 27.3334L20.4993 32.4584M20.4993 32.4584L23.7161 37.5834M20.4993 32.4584L23.7161 27.3334M20.4993 32.4584L17.2843 37.5834M28.59 27.3334H31.8068M31.8068 27.3334H35.0202M31.8068 27.3334L31.8051 37.5834M5.97852 27.3334H9.1936M9.1936 27.3334H12.4104M9.1936 27.3334V37.5834" stroke="white" stroke-width="2.5625" stroke-linecap="round" stroke-linejoin="round"/>
</svg>
