<svg width="41" height="40" viewBox="0 0 41 40" fill="none" xmlns="http://www.w3.org/2000/svg">
<path d="M27.3561 15.128C28.5666 14.7251 29.8751 14.7251 31.0857 15.128C31.8758 15.3921 32.5285 15.8538 33.1619 16.4077C33.7674 16.9402 34.4545 17.6509 35.2768 18.5012C36.2588 19.5218 37.2422 20.5409 38.227 21.5587C39.1889 22.5506 39.5754 23.5984 39.5711 24.9984C39.5582 28.5604 39.4831 31.0039 38.461 33.0071C37.4828 34.9256 35.9225 36.4851 34.0036 37.4624C31.1157 38.9353 27.4227 38.5746 24.2922 38.5746H17.2797C14.935 38.5746 13.0756 38.5746 11.5791 38.4522C10.046 38.3277 8.75131 38.0657 7.56825 37.4646C5.64902 36.4867 4.08865 34.9264 3.11082 33.0071C2.47742 31.7639 2.2305 30.4113 2.10168 28.7644C1.91273 26.2738 4.0255 24.2576 5.65087 22.6194C6.31003 21.9537 7.0057 21.3955 7.86884 21.0777C9.1784 20.5988 10.6152 20.5988 11.9248 21.0777C12.7879 21.3955 13.4836 21.9537 14.1427 22.6194C14.7826 23.2635 15.4997 24.1223 16.3671 25.1637C16.4423 25.256 16.5604 25.3419 16.6699 25.2281L23.1649 18.5012C23.9894 17.6509 24.6744 16.9402 25.2798 16.4077C25.9132 15.8538 26.5681 15.3921 27.3561 15.128ZM27.4055 18.8275C26.9117 19.2613 26.3169 19.8753 25.4366 20.7879L18.9866 27.4654C18.6557 27.8083 18.2562 28.0777 17.8143 28.2559C17.3723 28.4342 16.8977 28.5173 16.4215 28.4998C15.9452 28.4824 15.478 28.3649 15.0502 28.1548C14.6225 27.9448 14.2437 27.6469 13.9388 27.2808C13.0133 26.1728 12.3842 25.4192 11.856 24.8889C11.3407 24.3671 11.0401 24.1846 10.819 24.103C10.2235 23.8851 9.5701 23.8851 8.97461 24.103C8.75346 24.1846 8.45501 24.3671 7.93755 24.8889C7.14312 25.6876 6.44101 26.5786 5.72172 27.4439C5.37604 27.8583 5.28156 28.0773 5.32021 28.6034C5.42757 30.0119 5.63584 30.8686 5.97938 31.5449C6.64834 32.8576 7.71561 33.9249 9.02829 34.5938C9.68316 34.9267 10.5098 35.1328 11.841 35.2423C13.1937 35.3518 14.92 35.3539 17.3505 35.3539H24.2213C26.7807 35.3539 30.1581 35.8091 32.5436 34.5938C33.8562 33.9249 34.9235 32.8576 35.5925 31.5449C36.198 30.3533 36.3354 28.7472 36.3504 24.9876C36.3525 24.3993 36.2624 24.1588 35.8394 23.723L33.0052 20.7879C32.1249 19.8753 31.5323 19.2634 31.0363 18.8275C29.9305 17.857 28.5585 17.8141 27.4055 18.8275Z" fill="white"/>
<path d="M17.2811 1H24.2936C26.6382 1 28.4976 1 29.9942 1.12239C31.5272 1.24692 32.8219 1.50887 34.0071 2.11006C35.9259 3.08882 37.4855 4.64993 38.4624 6.56963C39.0658 7.75055 39.3277 9.04741 39.4522 10.5805C39.5746 12.077 39.5746 13.9364 39.5746 16.2811V23.2936C39.5746 25.6382 39.5746 27.4976 39.4522 28.9942C39.3277 30.5272 39.0658 31.8219 38.4646 33.0071C37.4858 34.9259 35.9247 36.4855 34.005 37.4624C32.8241 38.0658 31.5272 38.3277 29.9942 38.4522C28.4976 38.5746 26.6382 38.5746 24.2936 38.5746H17.2811C14.9364 38.5746 13.077 38.5746 11.5805 38.4522C10.0474 38.3277 8.7527 38.0658 7.56963 37.4646C5.6504 36.4867 4.09004 34.9264 3.11221 33.0071C2.50887 31.8219 2.24692 30.5272 2.12239 28.9942C2 27.4976 2 25.6382 2 23.2936V16.2811C2 13.9364 2 12.077 2.12239 10.5805C2.24692 9.04741 2.50887 7.7527 3.11006 6.56963C4.08845 4.65008 5.64961 3.08967 7.56963 2.11221C8.75055 1.50887 10.0474 1.24692 11.5805 1.12239C13.077 1 14.9364 1 17.2811 1ZM11.8424 4.33233C10.5112 4.43969 9.68455 4.64796 9.02967 4.98076C7.71699 5.64972 6.64972 6.71699 5.98076 8.02967C5.64796 8.68455 5.44183 9.51119 5.33233 10.8424C5.22283 12.1951 5.22068 13.9214 5.22068 16.3519V23.2227C5.22068 25.6554 5.22068 27.3817 5.33233 28.7322C5.43969 30.0634 5.64796 30.8901 5.98076 31.5449C6.64972 32.8576 7.71699 33.9249 9.02967 34.5939C9.68455 34.9267 10.5112 35.1328 11.8424 35.2423C13.1951 35.3518 14.9214 35.3539 17.3519 35.3539H24.2227C26.6554 35.3539 28.3817 35.3539 29.7322 35.2423C31.0634 35.1349 31.8901 34.9267 32.5449 34.5939C33.8576 33.9249 34.9249 32.8576 35.5939 31.5449C35.9267 30.8901 36.1328 30.0634 36.2423 28.7322C36.3518 27.3795 36.3539 25.6532 36.3539 23.2227V16.3519C36.3539 13.9214 36.3539 12.1929 36.2423 10.8424C36.1349 9.51119 35.9267 8.68455 35.5939 8.02967C34.9249 6.71699 33.8576 5.64972 32.5449 4.98076C31.8901 4.64796 31.0634 4.44183 29.7322 4.33233C28.3795 4.22283 26.6532 4.22068 24.2227 4.22068H17.3519C14.9214 4.22068 13.1929 4.22068 11.8424 4.33233Z" fill="white"/>
<path d="M16.4915 10.662C15.7797 10.662 15.097 10.9448 14.5937 11.4481C14.0904 11.9515 13.8076 12.6341 13.8076 13.3459C13.8076 14.0578 14.0904 14.7404 14.5937 15.2437C15.097 15.7471 15.7797 16.0298 16.4915 16.0298C17.2033 16.0298 17.886 15.7471 18.3893 15.2437C18.8926 14.7404 19.1754 14.0578 19.1754 13.3459C19.1754 12.6341 18.8926 11.9515 18.3893 11.4481C17.886 10.9448 17.2033 10.662 16.4915 10.662ZM10.5869 13.3459C10.5869 11.78 11.209 10.2781 12.3163 9.17077C13.4236 8.06345 14.9255 7.44136 16.4915 7.44136C18.0575 7.44136 19.5593 8.06345 20.6667 9.17077C21.774 10.2781 22.3961 11.78 22.3961 13.3459C22.3961 14.9119 21.774 16.4138 20.6667 17.5211C19.5593 18.6284 18.0575 19.2505 16.4915 19.2505C14.9255 19.2505 13.4236 18.6284 12.3163 17.5211C11.209 16.4138 10.5869 14.9119 10.5869 13.3459Z" fill="white"/>
</svg>
