<svg width="25" height="24" viewBox="0 0 25 24" fill="none" xmlns="http://www.w3.org/2000/svg">
<path d="M17.5 2.12689C19.1251 2.28674 20.2191 2.64802 21.0355 3.46449C22.5 4.92896 22.5 7.28598 22.5 12C22.5 16.7141 22.5 19.0711 21.0355 20.5356C19.5711 22 17.214 22 12.5 22C7.78595 22 5.42893 22 3.96447 20.5356C2.5 19.0711 2.5 16.7141 2.5 12C2.5 7.28598 2.5 4.92896 3.96447 3.46449C4.78094 2.64802 5.87486 2.28674 7.5 2.12689" stroke="white" stroke-width="1.5" stroke-linecap="round"/>
<path d="M12.5 10L12.5 2M12.5 2L15.5 5M12.5 2L9.5 5" stroke="white" stroke-width="1.5" stroke-linecap="round" stroke-linejoin="round"/>
<path d="M2.5 13H5.66026C6.56543 13 7.01802 13 7.41584 13.183C7.81367 13.3659 8.10821 13.7096 8.69729 14.3968L9.30271 15.1032C9.89179 15.7904 10.1863 16.1341 10.5842 16.317C10.982 16.5 11.4346 16.5 12.3397 16.5H12.6603C13.5654 16.5 14.018 16.5 14.4158 16.317C14.8137 16.1341 15.1082 15.7904 15.6973 15.1032L16.3027 14.3968C16.8918 13.7096 17.1863 13.3659 17.5842 13.183C17.982 13 18.4346 13 19.3397 13H22.5" stroke="white" stroke-width="1.5" stroke-linecap="round"/>
</svg>
