<svg width="41" height="40" viewBox="0 0 41 40" fill="none" xmlns="http://www.w3.org/2000/svg">
<path d="M10.5 35C13.2614 35 15.5 32.7614 15.5 30C15.5 27.2386 13.2614 25 10.5 25C7.73858 25 5.5 27.2386 5.5 30C5.5 32.7614 7.73858 35 10.5 35Z" stroke="white" stroke-width="3" stroke-linecap="round" stroke-linejoin="round"/>
<path d="M30.5 33.3333C33.2614 33.3333 35.5 31.0948 35.5 28.3333C35.5 25.5719 33.2614 23.3333 30.5 23.3333C27.7386 23.3333 25.5 25.5719 25.5 28.3333C25.5 31.0948 27.7386 33.3333 30.5 33.3333Z" stroke="white" stroke-width="3" stroke-linecap="round" stroke-linejoin="round"/>
<path d="M15.5 30V16.6667M15.5 16.6667V10L35.5 5V11.6667M15.5 16.6667L35.5 11.6667M35.5 28.3333V11.6667" stroke="white" stroke-width="3" stroke-linecap="round" stroke-linejoin="round"/>
</svg>
