<svg width="41" height="41" viewBox="0 0 41 41" fill="none" xmlns="http://www.w3.org/2000/svg">
<path d="M6.15625 22.1875V20.8308C6.15625 15.8239 6.15625 13.3214 6.94769 11.32C8.22006 8.10531 10.9099 5.57069 14.3221 4.37087C16.4416 3.625 19.096 3.625 24.4116 3.625C27.4457 3.625 28.9645 3.625 30.1761 4.05194C32.1252 4.73706 33.6625 6.18494 34.3898 8.02262C34.8421 9.16506 34.8421 10.5961 34.8421 13.4564V22.1875" stroke="white" stroke-width="2.53125" stroke-linecap="round" stroke-linejoin="round"/>
<path d="M6.15625 20.5C6.15625 19.0083 6.74882 17.5777 7.80361 16.5229C8.8584 15.4681 10.289 14.8756 11.7807 14.8756C12.9046 14.8756 14.2292 15.0713 15.3211 14.7794C15.7981 14.651 16.2331 14.3994 16.5823 14.0499C16.9315 13.7005 17.1826 13.2653 17.3106 12.7881C17.6026 11.6963 17.4068 10.3716 17.4068 9.24775C17.4073 7.75635 18 6.32618 19.0548 5.27176C20.1095 4.21734 21.5398 3.625 23.0312 3.625M6.15625 37.375V32.3125M6.15625 32.3125V29.275C6.15625 28.3199 6.15625 27.844 6.45325 27.547C6.74688 27.25 7.22612 27.25 8.18125 27.25H9.53125C10.2026 27.25 10.8464 27.5167 11.3211 27.9914C11.7958 28.4661 12.0625 29.1099 12.0625 29.7812C12.0625 30.4526 11.7958 31.0964 11.3211 31.5711C10.8464 32.0458 10.2026 32.3125 9.53125 32.3125H6.15625ZM34.8438 27.25H32.3125C30.7212 27.25 29.9264 27.25 29.4319 27.7444C28.9375 28.2389 28.9375 29.0337 28.9375 30.625V32.3125M28.9375 32.3125V37.375M28.9375 32.3125H33.1562M23.875 32.3125C23.875 33.6552 23.3416 34.9428 22.3922 35.8922C21.4428 36.8416 20.1552 37.375 18.8125 37.375C18.1814 37.375 17.8675 37.375 17.6313 37.24C17.0693 36.9143 17.125 36.2579 17.125 35.6875V28.9375C17.125 28.3671 17.0693 27.7107 17.6313 27.385C17.8675 27.25 18.1814 27.25 18.8125 27.25C19.4773 27.25 20.1356 27.3809 20.7498 27.6354C21.364 27.8898 21.9221 28.2627 22.3922 28.7328C22.8623 29.2029 23.2352 29.761 23.4896 30.3752C23.7441 30.9894 23.875 31.6477 23.875 32.3125Z" stroke="white" stroke-width="2.53125" stroke-linecap="round" stroke-linejoin="round"/>
</svg>
