<svg width="41" height="40" viewBox="0 0 41 40" fill="none" xmlns="http://www.w3.org/2000/svg">
<path d="M17.166 35.4166H23.8327V37.9166H17.166V35.4166ZM35.916 23.3333V16.6666H38.416V23.3333H35.916ZM5.08268 22.6049V23.3333H2.58268V22.6049H5.08268ZM15.681 7.68495L9.08268 13.6233L7.41101 11.7633L14.0077 5.82495L15.681 7.68495ZM2.58268 22.6049C2.58268 19.7899 2.55768 18.0066 3.26601 16.4133L5.55101 17.4316C5.10768 18.4283 5.08268 19.5699 5.08268 22.6049H2.58268ZM9.08268 13.6233C6.82768 15.6533 5.99435 16.4366 5.55101 17.4316L3.26601 16.4133C3.97601 14.8183 5.31768 13.6466 7.41101 11.7633L9.08268 13.6233ZM23.7827 4.58328C21.146 4.58328 20.151 4.60328 19.266 4.94328L18.3693 2.60995C19.7893 2.06328 21.336 2.08328 23.7827 2.08328V4.58328ZM14.0077 5.82662C15.8177 4.19828 16.9493 3.15328 18.3693 2.60995L19.2643 4.94328C18.3777 5.28328 17.631 5.92995 15.681 7.68495L14.0077 5.82662ZM23.8327 35.4166C27.011 35.4166 29.2677 35.4133 30.9827 35.1833C32.6577 34.9583 33.6243 34.535 34.3293 33.83L36.096 35.5966C34.8493 36.8466 33.2677 37.3983 31.3143 37.6616C29.3977 37.9199 26.9393 37.9166 23.8327 37.9166V35.4166ZM38.416 23.3333C38.416 26.4399 38.4193 28.8966 38.161 30.8149C37.8977 32.7683 37.3443 34.3499 36.0977 35.5983L34.331 33.8316C35.0343 33.1249 35.4577 32.1583 35.6827 30.4816C35.9127 28.7699 35.916 26.5116 35.916 23.3333H38.416ZM17.166 37.9166C14.0593 37.9166 11.6027 37.9199 9.68435 37.6616C7.73101 37.3983 6.14935 36.8449 4.90102 35.5983L6.66768 33.8316C7.37435 34.535 8.34101 34.9583 10.0177 35.1833C11.7293 35.4133 13.9877 35.4166 17.166 35.4166V37.9166ZM5.08268 23.3333C5.08268 26.5116 5.08601 28.77 5.31601 30.4833C5.54101 32.1583 5.96435 33.125 6.66935 33.83L4.90268 35.5966C3.65268 34.3499 3.10101 32.7683 2.83768 30.8149C2.57935 28.8983 2.58268 26.4399 2.58268 23.3333H5.08268ZM35.916 16.6666C35.916 13.4883 35.9127 11.2316 35.6827 9.51662C35.4577 7.84162 35.0343 6.87495 34.3293 6.16995L36.096 4.40328C37.346 5.64995 37.8977 7.23162 38.161 9.18495C38.4193 11.1016 38.416 13.5599 38.416 16.6666H35.916ZM23.7827 2.08328C26.9077 2.08328 29.376 2.07995 31.301 2.33828C33.2627 2.60162 34.8493 3.15495 36.0977 4.40162L34.331 6.16828C33.6243 5.46495 32.656 5.04162 30.9693 4.81662C29.2477 4.58662 26.9777 4.58328 23.7827 4.58328V2.08328Z" fill="white"/>
<path d="M18.833 4.16663V8.33329C18.833 12.2616 18.833 14.2266 17.613 15.4466C16.393 16.6666 14.428 16.6666 10.4997 16.6666H3.83301" stroke="white" stroke-width="2.5"/>
</svg>
